<?xml version="1.0" encoding="utf-8" ?>
<svg baseProfile="full" height="708px" version="1.1" width="628px" xmlns="http://www.w3.org/2000/svg" xmlns:ev="http://www.w3.org/2001/xml-events" xmlns:xlink="http://www.w3.org/1999/xlink"><defs /><rect fill="#0f1923" height="708" width="628" x="0" y="0" /><text fill="#7dd3fc" font-family="Consolas, monospace" font-size="14px" font-weight="bold" x="30" y="22">DD1 BOX ENGINEERING — TEKNİK ÇİZİM</text><text fill="#7dd3fc" font-family="Consolas" font-size="11px" font-weight="bold" x="30" y="55">FRONT VIEW</text><rect fill="#1a2744" height="250.2" stroke="#d0d0d0" stroke-width="1.5" width="250.2" x="30" y="60" /><rect fill="none" height="228.6" stroke="#334155" stroke-dasharray="4,2" stroke-width="0.5" width="228.6" x="40.8" y="70.8" /><circle cx="155.1" cy="172.59" fill="none" r="80.46" stroke="#7c3aed" stroke-width="2" /><circle cx="155.1" cy="172.59" fill="none" r="28.160999999999994" stroke="#7c3aed" stroke-width="1" /><text fill="#7c3aed" font-family="Consolas" font-size="9px" x="145.1" y="176.59">SUB</text><rect fill="#2563eb" fill-opacity="0.4" height="30.0" stroke="#2563eb" stroke-width="1.5" width="315.0" x="-2.4000000000000057" y="267.4" /><text fill="#60a5fa" font-family="Consolas" font-size="7px" x="-0.4000000000000057" y="294.4">SLOT PORT</text><line stroke="#94a3b8" stroke-width="0.5" x1="15" x2="15" y1="60" y2="310.2" /><line stroke="#94a3b8" stroke-width="0.5" x1="12" x2="18" y1="60" y2="60" /><line stroke="#94a3b8" stroke-width="0.5" x1="12" x2="18" y1="310.2" y2="310.2" /><text fill="#94a3b8" font-family="Consolas" font-size="9px" transform="rotate(-90,3,185.1)" x="3" y="185.1">417</text><line stroke="#94a3b8" stroke-width="0.5" x1="30" x2="280.2" y1="325.2" y2="325.2" /><line stroke="#94a3b8" stroke-width="0.5" x1="30" x2="30" y1="322.2" y2="328.2" /><line stroke="#94a3b8" stroke-width="0.5" x1="280.2" x2="280.2" y1="322.2" y2="328.2" /><text fill="#94a3b8" font-family="Consolas" font-size="9px" x="145.1" y="337.2">417</text><text fill="#7dd3fc" font-family="Consolas" font-size="11px" font-weight="bold" x="320.2" y="55">SIDE VIEW</text><rect fill="#1a2744" height="250.2" stroke="#d0d0d0" stroke-width="1.5" width="208.61999999999998" x="320.2" y="60" /><rect fill="none" height="228.6" stroke="#334155" stroke-dasharray="4,2" stroke-width="0.5" width="187.01999999999998" x="331.0" y="70.8" /><rect fill="#2563eb" fill-opacity="0.3" height="30.0" stroke="#2563eb" stroke-width="1" width="24.0" x="331.0" y="267.4" /><text fill="#60a5fa" font-family="Consolas" font-size="7px" x="334.0" y="294.4">PORT</text><line stroke="#94a3b8" stroke-width="0.5" x1="320.2" x2="528.8199999999999" y1="325.2" y2="325.2" /><line stroke="#94a3b8" stroke-width="0.5" x1="320.2" x2="320.2" y1="322.2" y2="328.2" /><line stroke="#94a3b8" stroke-width="0.5" x1="528.8199999999999" x2="528.8199999999999" y1="322.2" y2="328.2" /><text fill="#94a3b8" font-family="Consolas" font-size="9px" x="414.51" y="337.2">348</text><line stroke="#94a3b8" stroke-width="0.5" x1="538.8199999999999" x2="538.8199999999999" y1="60" y2="310.2" /><line stroke="#94a3b8" stroke-width="0.5" x1="535.8199999999999" x2="541.8199999999999" y1="60" y2="60" /><line stroke="#94a3b8" stroke-width="0.5" x1="535.8199999999999" x2="541.8199999999999" y1="310.2" y2="310.2" /><text fill="#94a3b8" font-family="Consolas" font-size="9px" transform="rotate(-90,526.8199999999999,185.1)" x="526.8199999999999" y="185.1">417</text><text fill="#7dd3fc" font-family="Consolas" font-size="11px" font-weight="bold" x="30" y="355.2">TOP VIEW</text><rect fill="#1a2744" height="208.61999999999998" stroke="#d0d0d0" stroke-width="1.5" width="250.2" x="30" y="360.2" /><rect fill="none" height="187.01999999999998" stroke="#334155" stroke-dasharray="4,2" stroke-width="0.5" width="228.6" x="40.8" y="371.0" /><rect fill="#2563eb" fill-opacity="0.5" height="14.799999999999999" stroke="#2563eb" stroke-width="1" width="315.0" x="-2.4000000000000057" y="360.2" /><text fill="#60a5fa" font-family="Consolas" font-size="7px" x="-0.4000000000000057" y="373.0">PORT</text><line stroke="#94a3b8" stroke-width="0.5" x1="30" x2="280.2" y1="583.8199999999999" y2="583.8199999999999" /><line stroke="#94a3b8" stroke-width="0.5" x1="30" x2="30" y1="580.8199999999999" y2="586.8199999999999" /><line stroke="#94a3b8" stroke-width="0.5" x1="280.2" x2="280.2" y1="580.8199999999999" y2="586.8199999999999" /><text fill="#94a3b8" font-family="Consolas" font-size="9px" x="145.1" y="595.8199999999999">417</text><line stroke="#94a3b8" stroke-width="0.5" x1="15" x2="15" y1="360.2" y2="568.8199999999999" /><line stroke="#94a3b8" stroke-width="0.5" x1="12" x2="18" y1="360.2" y2="360.2" /><line stroke="#94a3b8" stroke-width="0.5" x1="12" x2="18" y1="568.8199999999999" y2="568.8199999999999" /><text fill="#94a3b8" font-family="Consolas" font-size="9px" transform="rotate(-90,3,464.51)" x="3" y="464.51">348</text><text fill="#94a3b8" font-family="Consolas, monospace" font-size="11px" x="30" y="598.8199999999999">Net Hacim: 45.25 L  |  Tuning: 36.2 Hz</text><text fill="#94a3b8" font-family="Consolas, monospace" font-size="11px" x="30" y="614.8199999999999">Port: 262.4 cm²  |  Port Uzunluk: 4.0 cm</text><text fill="#94a3b8" font-family="Consolas, monospace" font-size="11px" x="30" y="630.8199999999999">Slot: 52.5×5.0 cm</text><text fill="#94a3b8" font-family="Consolas, monospace" font-size="11px" x="30" y="646.8199999999999">Dış Boyutlar: 417.0×417.0×347.7 mm</text><text fill="#94a3b8" font-family="Consolas, monospace" font-size="11px" x="30" y="662.8199999999999">Malzeme: 18.0 mm  |  Sürücü Kesim: Ø268.2 mm</text></svg>