<?xml version="1.0" encoding="utf-8" ?>
<svg baseProfile="full" height="2581px" version="1.1" width="2501px" xmlns="http://www.w3.org/2000/svg" xmlns:ev="http://www.w3.org/2001/xml-events" xmlns:xlink="http://www.w3.org/1999/xlink"><defs /><rect fill="#0f1923" height="2581" width="2501" x="0" y="0" /><text fill="#7dd3fc" font-family="Consolas, monospace" font-size="14px" font-weight="bold" x="30" y="22">DD1 BOX ENGINEERING — TEKNİK ÇİZİM</text><text fill="#7dd3fc" font-family="Consolas" font-size="11px" font-weight="bold" x="30" y="55">FRONT VIEW</text><rect fill="#1a2744" height="2307.6" stroke="#d0d0d0" stroke-width="1.5" width="2307.6" x="30" y="60" /><rect fill="none" height="2286.0" stroke="#334155" stroke-dasharray="4,2" stroke-width="0.5" width="2286.0" x="40.8" y="70.8" /><circle cx="1183.8" cy="1098.42" fill="none" r="80.46" stroke="#7c3aed" stroke-width="2" /><circle cx="1183.8" cy="1098.42" fill="none" r="28.160999999999994" stroke="#7c3aed" stroke-width="1" /><text fill="#7c3aed" font-family="Consolas" font-size="9px" x="1173.8" y="1102.42">SUB</text><rect fill="#2563eb" fill-opacity="0.4" height="30.0" stroke="#2563eb" stroke-width="1.5" width="315.0" x="1026.3" y="2324.7999999999997" /><text fill="#60a5fa" font-family="Consolas" font-size="7px" x="1028.3" y="2351.7999999999997">SLOT PORT</text><line stroke="#94a3b8" stroke-width="0.5" x1="15" x2="15" y1="60" y2="2367.6" /><line stroke="#94a3b8" stroke-width="0.5" x1="12" x2="18" y1="60" y2="60" /><line stroke="#94a3b8" stroke-width="0.5" x1="12" x2="18" y1="2367.6" y2="2367.6" /><text fill="#94a3b8" font-family="Consolas" font-size="9px" transform="rotate(-90,3,1213.8)" x="3" y="1213.8">3846</text><line stroke="#94a3b8" stroke-width="0.5" x1="30" x2="2337.6" y1="2382.6" y2="2382.6" /><line stroke="#94a3b8" stroke-width="0.5" x1="30" x2="30" y1="2379.6" y2="2385.6" /><line stroke="#94a3b8" stroke-width="0.5" x1="2337.6" x2="2337.6" y1="2379.6" y2="2385.6" /><text fill="#94a3b8" font-family="Consolas" font-size="9px" x="1173.8" y="2394.6">3846</text><text fill="#7dd3fc" font-family="Consolas" font-size="11px" font-weight="bold" x="2377.6" y="55">SIDE VIEW</text><rect fill="#1a2744" height="2307.6" stroke="#d0d0d0" stroke-width="1.5" width="23.46" x="2377.6" y="60" /><rect fill="none" height="2286.0" stroke="#334155" stroke-dasharray="4,2" stroke-width="0.5" width="1.860000000000003" x="2388.4" y="70.8" /><rect fill="#2563eb" fill-opacity="0.3" height="30.0" stroke="#2563eb" stroke-width="1" width="1.860000000000003" x="2388.4" y="2324.7999999999997" /><text fill="#60a5fa" font-family="Consolas" font-size="7px" x="2391.4" y="2351.7999999999997">PORT</text><line stroke="#94a3b8" stroke-width="0.5" x1="2377.6" x2="2401.06" y1="2382.6" y2="2382.6" /><line stroke="#94a3b8" stroke-width="0.5" x1="2377.6" x2="2377.6" y1="2379.6" y2="2385.6" /><line stroke="#94a3b8" stroke-width="0.5" x1="2401.06" x2="2401.06" y1="2379.6" y2="2385.6" /><text fill="#94a3b8" font-family="Consolas" font-size="9px" x="2379.33" y="2394.6">39</text><line stroke="#94a3b8" stroke-width="0.5" x1="2411.06" x2="2411.06" y1="60" y2="2367.6" /><line stroke="#94a3b8" stroke-width="0.5" x1="2408.06" x2="2414.06" y1="60" y2="60" /><line stroke="#94a3b8" stroke-width="0.5" x1="2408.06" x2="2414.06" y1="2367.6" y2="2367.6" /><text fill="#94a3b8" font-family="Consolas" font-size="9px" transform="rotate(-90,2399.06,1213.8)" x="2399.06" y="1213.8">3846</text><text fill="#7dd3fc" font-family="Consolas" font-size="11px" font-weight="bold" x="30" y="2412.6">TOP VIEW</text><rect fill="#1a2744" height="23.46" stroke="#d0d0d0" stroke-width="1.5" width="2307.6" x="30" y="2417.6" /><rect fill="none" height="1.860000000000003" stroke="#334155" stroke-dasharray="4,2" stroke-width="0.5" width="2286.0" x="40.8" y="2428.4" /><rect fill="#2563eb" fill-opacity="0.5" height="14.799999999999999" stroke="#2563eb" stroke-width="1" width="315.0" x="1026.3" y="2417.6" /><text fill="#60a5fa" font-family="Consolas" font-size="7px" x="1028.3" y="2430.4">PORT</text><line stroke="#94a3b8" stroke-width="0.5" x1="30" x2="2337.6" y1="2456.06" y2="2456.06" /><line stroke="#94a3b8" stroke-width="0.5" x1="30" x2="30" y1="2453.06" y2="2459.06" /><line stroke="#94a3b8" stroke-width="0.5" x1="2337.6" x2="2337.6" y1="2453.06" y2="2459.06" /><text fill="#94a3b8" font-family="Consolas" font-size="9px" x="1173.8" y="2468.06">3846</text><line stroke="#94a3b8" stroke-width="0.5" x1="15" x2="15" y1="2417.6" y2="2441.06" /><line stroke="#94a3b8" stroke-width="0.5" x1="12" x2="18" y1="2417.6" y2="2417.6" /><line stroke="#94a3b8" stroke-width="0.5" x1="12" x2="18" y1="2441.06" y2="2441.06" /><text fill="#94a3b8" font-family="Consolas" font-size="9px" transform="rotate(-90,3,2429.33)" x="3" y="2429.33">39</text><text fill="#94a3b8" font-family="Consolas, monospace" font-size="11px" x="30" y="2471.06">Net Hacim: 45.25 L  |  Tuning: 36.2 Hz</text><text fill="#94a3b8" font-family="Consolas, monospace" font-size="11px" x="30" y="2487.06">Port: 262.4 cm²  |  Port Uzunluk: 4.0 cm</text><text fill="#94a3b8" font-family="Consolas, monospace" font-size="11px" x="30" y="2503.06">Slot: 52.5×5.0 cm</text><text fill="#94a3b8" font-family="Consolas, monospace" font-size="11px" x="30" y="2519.06">Dış Boyutlar: 3846.0×3846.0×39.1 mm</text><text fill="#94a3b8" font-family="Consolas, monospace" font-size="11px" x="30" y="2535.06">Malzeme: 18 mm  |  Sürücü Kesim: Ø268.2 mm</text></svg>