  0
SECTION
  2
HEADER
  9
$ACADVER
  1
AC1015
  9
$ACADMAINTVER
 70
6
  9
$DWGCODEPAGE
  3
ANSI_1252
  9
$INSBASE
 10
0.0
 20
0.0
 30
0.0
  9
$EXTMIN
 10
1e+20
 20
1e+20
 30
1e+20
  9
$EXTMAX
 10
-1e+20
 20
-1e+20
 30
-1e+20
  9
$LIMMIN
 10
0.0
 20
0.0
  9
$LIMMAX
 10
420.0
 20
297.0
  9
$ORTHOMODE
 70
0
  9
$REGENMODE
 70
1
  9
$FILLMODE
 70
1
  9
$QTEXTMODE
 70
0
  9
$MIRRTEXT
 70
1
  9
$LTSCALE
 40
1.0
  9
$ATTMODE
 70
1
  9
$TEXTSIZE
 40
2.5
  9
$TRACEWID
 40
1.0
  9
$TEXTSTYLE
  7
Standard
  9
$CLAYER
  8
0
  9
$CELTYPE
  6
ByLayer
  9
$CECOLOR
 62
256
  9
$CELTSCALE
 40
1.0
  9
$DISPSILH
 70
0
  9
$DIMSCALE
 40
1.0
  9
$DIMASZ
 40
2.5
  9
$DIMEXO
 40
0.625
  9
$DIMDLI
 40
3.75
  9
$DIMRND
 40
0.0
  9
$DIMDLE
 40
0.0
  9
$DIMEXE
 40
1.25
  9
$DIMTP
 40
0.0
  9
$DIMTM
 40
0.0
  9
$DIMTXT
 40
2.5
  9
$DIMCEN
 40
2.5
  9
$DIMTSZ
 40
0.0
  9
$DIMTOL
 70
0
  9
$DIMLIM
 70
0
  9
$DIMTIH
 70
0
  9
$DIMTOH
 70
0
  9
$DIMSE1
 70
0
  9
$DIMSE2
 70
0
  9
$DIMTAD
 70
1
  9
$DIMZIN
 70
8
  9
$DIMBLK
  1

  9
$DIMASO
 70
1
  9
$DIMSHO
 70
1
  9
$DIMPOST
  1

  9
$DIMAPOST
  1

  9
$DIMALT
 70
0
  9
$DIMALTD
 70
3
  9
$DIMALTF
 40
0.03937007874
  9
$DIMLFAC
 40
1.0
  9
$DIMTOFL
 70
1
  9
$DIMTVP
 40
0.0
  9
$DIMTIX
 70
0
  9
$DIMSOXD
 70
0
  9
$DIMSAH
 70
0
  9
$DIMBLK1
  1

  9
$DIMBLK2
  1

  9
$DIMSTYLE
  2
ISO-25
  9
$DIMCLRD
 70
0
  9
$DIMCLRE
 70
0
  9
$DIMCLRT
 70
0
  9
$DIMTFAC
 40
1.0
  9
$DIMGAP
 40
0.625
  9
$DIMJUST
 70
0
  9
$DIMSD1
 70
0
  9
$DIMSD2
 70
0
  9
$DIMTOLJ
 70
0
  9
$DIMTZIN
 70
8
  9
$DIMALTZ
 70
0
  9
$DIMALTTZ
 70
0
  9
$DIMUPT
 70
0
  9
$DIMDEC
 70
2
  9
$DIMTDEC
 70
2
  9
$DIMALTU
 70
2
  9
$DIMALTTD
 70
3
  9
$DIMTXSTY
  7
Standard
  9
$DIMAUNIT
 70
0
  9
$DIMADEC
 70
0
  9
$DIMALTRND
 40
0.0
  9
$DIMAZIN
 70
0
  9
$DIMDSEP
 70
44
  9
$DIMATFIT
 70
3
  9
$DIMFRAC
 70
0
  9
$DIMLDRBLK
  1

  9
$DIMLUNIT
 70
2
  9
$DIMLWD
 70
-2
  9
$DIMLWE
 70
-2
  9
$DIMTMOVE
 70
0
  9
$LUNITS
 70
2
  9
$LUPREC
 70
4
  9
$SKETCHINC
 40
1.0
  9
$FILLETRAD
 40
10.0
  9
$AUNITS
 70
0
  9
$AUPREC
 70
2
  9
$MENU
  1
.
  9
$ELEVATION
 40
0.0
  9
$PELEVATION
 40
0.0
  9
$THICKNESS
 40
0.0
  9
$LIMCHECK
 70
0
  9
$CHAMFERA
 40
0.0
  9
$CHAMFERB
 40
0.0
  9
$CHAMFERC
 40
0.0
  9
$CHAMFERD
 40
0.0
  9
$SKPOLY
 70
0
  9
$TDCREATE
 40
2461112.029733796
  9
$TDUCREATE
 40
2458532.153996898
  9
$TDUPDATE
 40
2461112.029733796
  9
$TDUUPDATE
 40
2458532.1544311
  9
$TDINDWG
 40
0.0
  9
$TDUSRTIMER
 40
0.0
  9
$USRTIMER
 70
1
  9
$ANGBASE
 50
0.0
  9
$ANGDIR
 70
0
  9
$PDMODE
 70
0
  9
$PDSIZE
 40
0.0
  9
$PLINEWID
 40
0.0
  9
$SPLFRAME
 70
0
  9
$SPLINETYPE
 70
6
  9
$SPLINESEGS
 70
8
  9
$HANDSEED
  5
67
  9
$SURFTAB1
 70
6
  9
$SURFTAB2
 70
6
  9
$SURFTYPE
 70
6
  9
$SURFU
 70
6
  9
$SURFV
 70
6
  9
$UCSBASE
  2

  9
$UCSNAME
  2

  9
$UCSORG
 10
0.0
 20
0.0
 30
0.0
  9
$UCSXDIR
 10
1.0
 20
0.0
 30
0.0
  9
$UCSYDIR
 10
0.0
 20
1.0
 30
0.0
  9
$UCSORTHOREF
  2

  9
$UCSORTHOVIEW
 70
0
  9
$UCSORGTOP
 10
0.0
 20
0.0
 30
0.0
  9
$UCSORGBOTTOM
 10
0.0
 20
0.0
 30
0.0
  9
$UCSORGLEFT
 10
0.0
 20
0.0
 30
0.0
  9
$UCSORGRIGHT
 10
0.0
 20
0.0
 30
0.0
  9
$UCSORGFRONT
 10
0.0
 20
0.0
 30
0.0
  9
$UCSORGBACK
 10
0.0
 20
0.0
 30
0.0
  9
$PUCSBASE
  2

  9
$PUCSNAME
  2

  9
$PUCSORG
 10
0.0
 20
0.0
 30
0.0
  9
$PUCSXDIR
 10
1.0
 20
0.0
 30
0.0
  9
$PUCSYDIR
 10
0.0
 20
1.0
 30
0.0
  9
$PUCSORTHOREF
  2

  9
$PUCSORTHOVIEW
 70
0
  9
$PUCSORGTOP
 10
0.0
 20
0.0
 30
0.0
  9
$PUCSORGBOTTOM
 10
0.0
 20
0.0
 30
0.0
  9
$PUCSORGLEFT
 10
0.0
 20
0.0
 30
0.0
  9
$PUCSORGRIGHT
 10
0.0
 20
0.0
 30
0.0
  9
$PUCSORGFRONT
 10
0.0
 20
0.0
 30
0.0
  9
$PUCSORGBACK
 10
0.0
 20
0.0
 30
0.0
  9
$USERI1
 70
0
  9
$USERI2
 70
0
  9
$USERI3
 70
0
  9
$USERI4
 70
0
  9
$USERI5
 70
0
  9
$USERR1
 40
0.0
  9
$USERR2
 40
0.0
  9
$USERR3
 40
0.0
  9
$USERR4
 40
0.0
  9
$USERR5
 40
0.0
  9
$WORLDVIEW
 70
1
  9
$SHADEDGE
 70
3
  9
$SHADEDIF
 70
70
  9
$TILEMODE
 70
1
  9
$MAXACTVP
 70
64
  9
$PINSBASE
 10
0.0
 20
0.0
 30
0.0
  9
$PLIMCHECK
 70
0
  9
$PEXTMIN
 10
1e+20
 20
1e+20
 30
1e+20
  9
$PEXTMAX
 10
-1e+20
 20
-1e+20
 30
-1e+20
  9
$PLIMMIN
 10
0.0
 20
0.0
  9
$PLIMMAX
 10
420.0
 20
297.0
  9
$UNITMODE
 70
0
  9
$VISRETAIN
 70
1
  9
$PLINEGEN
 70
0
  9
$PSLTSCALE
 70
1
  9
$TREEDEPTH
 70
3020
  9
$CMLSTYLE
  2
Standard
  9
$CMLJUST
 70
0
  9
$CMLSCALE
 40
20.0
  9
$PROXYGRAPHICS
 70
1
  9
$MEASUREMENT
 70
1
  9
$CELWEIGHT
370
-1
  9
$ENDCAPS
280
0
  9
$JOINSTYLE
280
0
  9
$LWDISPLAY
290
0
  9
$INSUNITS
 70
4
  9
$HYPERLINKBASE
  1

  9
$STYLESHEET
  1

  9
$XEDIT
290
1
  9
$CEPSNTYPE
380
0
  9
$PSTYLEMODE
290
1
  9
$FINGERPRINTGUID
  2
{CF3477B5-225B-499E-BE00-9A0BE9CBA729}
  9
$VERSIONGUID
  2
{9BCAE64F-9E86-4524-93AF-5B74E04DBE69}
  9
$EXTNAMES
290
1
  9
$PSVPSCALE
 40
0.0
  9
$OLESTARTUP
290
0
  0
ENDSEC
  0
SECTION
  2
CLASSES
  0
CLASS
  1
ACDBDICTIONARYWDFLT
  2
AcDbDictionaryWithDefault
  3
ObjectDBX Classes
 90
0
280
0
281
0
  0
CLASS
  1
SUN
  2
AcDbSun
  3
SCENEOE
 90
1153
280
0
281
0
  0
CLASS
  1
VISUALSTYLE
  2
AcDbVisualStyle
  3
ObjectDBX Classes
 90
4095
280
0
281
0
  0
CLASS
  1
MATERIAL
  2
AcDbMaterial
  3
ObjectDBX Classes
 90
1153
280
0
281
0
  0
CLASS
  1
SCALE
  2
AcDbScale
  3
ObjectDBX Classes
 90
1153
280
0
281
0
  0
CLASS
  1
TABLESTYLE
  2
AcDbTableStyle
  3
ObjectDBX Classes
 90
4095
280
0
281
0
  0
CLASS
  1
MLEADERSTYLE
  2
AcDbMLeaderStyle
  3
ACDB_MLEADERSTYLE_CLASS
 90
4095
280
0
281
0
  0
CLASS
  1
DICTIONARYVAR
  2
AcDbDictionaryVar
  3
ObjectDBX Classes
 90
0
280
0
281
0
  0
CLASS
  1
CELLSTYLEMAP
  2
AcDbCellStyleMap
  3
ObjectDBX Classes
 90
1152
280
0
281
0
  0
CLASS
  1
MENTALRAYRENDERSETTINGS
  2
AcDbMentalRayRenderSettings
  3
SCENEOE
 90
1024
280
0
281
0
  0
CLASS
  1
ACDBDETAILVIEWSTYLE
  2
AcDbDetailViewStyle
  3
ObjectDBX Classes
 90
1025
280
0
281
0
  0
CLASS
  1
ACDBSECTIONVIEWSTYLE
  2
AcDbSectionViewStyle
  3
ObjectDBX Classes
 90
1025
280
0
281
0
  0
CLASS
  1
RASTERVARIABLES
  2
AcDbRasterVariables
  3
ISM
 90
0
280
0
281
0
  0
CLASS
  1
ACDBPLACEHOLDER
  2
AcDbPlaceHolder
  3
ObjectDBX Classes
 90
0
280
0
281
0
  0
CLASS
  1
LAYOUT
  2
AcDbLayout
  3
ObjectDBX Classes
 90
0
280
0
281
0
  0
ENDSEC
  0
SECTION
  2
TABLES
  0
TABLE
  2
VPORT
  5
8
330
0
100
AcDbSymbolTable
 70
1
  0
VPORT
  5
23
330
8
100
AcDbSymbolTableRecord
100
AcDbViewportTableRecord
  2
*Active
 70
0
 10
0.0
 20
0.0
 11
1.0
 21
1.0
 12
0.0
 22
0.0
 13
0.0
 23
0.0
 14
0.5
 24
0.5
 15
0.5
 25
0.5
 16
0.0
 26
0.0
 36
1.0
 17
0.0
 27
0.0
 37
0.0
 40
1000.0
 41
1.34
 42
50.0
 43
0.0
 44
0.0
 50
0.0
 51
0.0
 71
0
 72
1000
 73
1
 74
3
 75
0
 76
0
 77
0
 78
0
281
0
 65
0
146
0.0
  0
ENDTAB
  0
TABLE
  2
LTYPE
  5
2
330
0
100
AcDbSymbolTable
 70
3
  0
LTYPE
  5
24
330
2
100
AcDbSymbolTableRecord
100
AcDbLinetypeTableRecord
  2
ByBlock
 70
0
  3

 72
65
 73
0
 40
0.0
  0
LTYPE
  5
25
330
2
100
AcDbSymbolTableRecord
100
AcDbLinetypeTableRecord
  2
ByLayer
 70
0
  3

 72
65
 73
0
 40
0.0
  0
LTYPE
  5
26
330
2
100
AcDbSymbolTableRecord
100
AcDbLinetypeTableRecord
  2
Continuous
 70
0
  3

 72
65
 73
0
 40
0.0
  0
ENDTAB
  0
TABLE
  2
LAYER
  5
1
330
0
100
AcDbSymbolTable
 70
4
  0
LAYER
  5
27
330
1
100
AcDbSymbolTableRecord
100
AcDbLayerTableRecord
  2
0
 70
0
 62
7
  6
Continuous
370
-3
390
13
  0
LAYER
  5
28
330
1
100
AcDbSymbolTableRecord
100
AcDbLayerTableRecord
  2
Defpoints
 70
0
 62
7
  6
Continuous
290
0
370
-3
390
13
  0
LAYER
  5
2F
330
1
100
AcDbSymbolTableRecord
100
AcDbLayerTableRecord
  2
CUT
 70
0
 62
7
  6
Continuous
370
-3
390
13
  0
LAYER
  5
30
330
1
100
AcDbSymbolTableRecord
100
AcDbLayerTableRecord
  2
ENGRAVE
 70
0
 62
1
  6
Continuous
370
-3
390
13
  0
ENDTAB
  0
TABLE
  2
STYLE
  5
5
330
0
100
AcDbSymbolTable
 70
1
  0
STYLE
  5
29
330
5
100
AcDbSymbolTableRecord
100
AcDbTextStyleTableRecord
  2
Standard
 70
0
 40
0.0
 41
1.0
 50
0.0
 71
0
 42
2.5
  3
txt
  4

  0
ENDTAB
  0
TABLE
  2
VIEW
  5
7
330
0
100
AcDbSymbolTable
 70
0
  0
ENDTAB
  0
TABLE
  2
UCS
  5
6
330
0
100
AcDbSymbolTable
 70
0
  0
ENDTAB
  0
TABLE
  2
APPID
  5
3
330
0
100
AcDbSymbolTable
 70
3
  0
APPID
  5
2A
330
3
100
AcDbSymbolTableRecord
100
AcDbRegAppTableRecord
  2
ACAD
 70
0
  0
APPID
  5
64
330
3
100
AcDbSymbolTableRecord
100
AcDbRegAppTableRecord
  2
HATCHBACKGROUNDCOLOR
 70
0
  0
APPID
  5
65
330
3
100
AcDbSymbolTableRecord
100
AcDbRegAppTableRecord
  2
EZDXF
 70
0
  0
ENDTAB
  0
TABLE
  2
DIMSTYLE
  5
4
330
0
100
AcDbSymbolTable
 70
1
100
AcDbDimStyleTable
  0
DIMSTYLE
105
2B
330
4
100
AcDbSymbolTableRecord
100
AcDbDimStyleTableRecord
  2
Standard
 70
0
  3

  4

 40
1.0
 41
2.5
 42
0.625
 43
3.75
 44
1.25
 45
0.0
 46
0.0
 47
0.0
 48
0.0
140
2.5
141
2.5
142
0.0
143
0.03937007874
144
1.0
145
0.0
146
1.0
147
0.625
148
0.0
 71
0
 72
0
 73
0
 74
0
 75
0
 76
0
 77
1
 78
8
 79
3
170
0
171
3
172
1
173
0
174
0
175
0
176
0
177
0
178
0
179
2
271
2
272
2
273
2
274
3
275
0
276
0
277
2
278
44
279
0
280
0
281
0
282
0
283
0
284
8
285
0
286
0
288
0
289
3
371
-2
372
-2
  0
ENDTAB
  0
TABLE
  2
BLOCK_RECORD
  5
9
330
0
100
AcDbSymbolTable
 70
2
  0
BLOCK_RECORD
  5
17
330
9
100
AcDbSymbolTableRecord
100
AcDbBlockTableRecord
  2
*Model_Space
340
1A
  0
BLOCK_RECORD
  5
1B
330
9
100
AcDbSymbolTableRecord
100
AcDbBlockTableRecord
  2
*Paper_Space
340
1E
  0
ENDTAB
  0
ENDSEC
  0
SECTION
  2
BLOCKS
  0
BLOCK
  5
18
330
17
100
AcDbEntity
  8
0
100
AcDbBlockBegin
  2
*Model_Space
 70
0
 10
0.0
 20
0.0
 30
0.0
  3
*Model_Space
  1

  0
ENDBLK
  5
19
330
17
100
AcDbEntity
  8
0
100
AcDbBlockEnd
  0
BLOCK
  5
1C
330
1B
100
AcDbEntity
  8
0
100
AcDbBlockBegin
  2
*Paper_Space
 70
0
 10
0.0
 20
0.0
 30
0.0
  3
*Paper_Space
  1

  0
ENDBLK
  5
1D
330
1B
100
AcDbEntity
  8
0
100
AcDbBlockEnd
  0
ENDSEC
  0
SECTION
  2
ENTITIES
  0
LWPOLYLINE
  5
31
330
17
100
AcDbEntity
  8
CUT
 62
7
100
AcDbPolyline
 90
65
 70
1
 10
25.000000000000014
 20
90.63928571428573
 10
15.000000000000012
 20
90.63928571428573
 10
15.000000000000018
 20
123.64642857142857
 10
25.000000000000018
 20
123.64642857142857
 10
25.000000000000025
 20
156.35357142857146
 10
15.000000000000025
 20
156.35357142857146
 10
15.00000000000003
 20
189.3607142857143
 10
25.00000000000003
 20
189.3607142857143
 10
25.000000000000036
 20
222.06785714285715
 10
15.000000000000037
 20
222.06785714285715
 10
15.000000000000043
 20
255.0
 10
15.000000000000043
 20
265.0
 10
25.000000000000043
 20
265.0
 10
55.07500000000003
 20
265.0
 10
55.07500000000003
 20
255.00000000000003
 10
84.92500000000005
 20
255.00000000000003
 10
84.92500000000005
 20
265.0
 10
115.07500000000003
 20
265.0
 10
115.07500000000003
 20
255.00000000000003
 10
144.92500000000007
 20
255.00000000000003
 10
144.92500000000007
 20
265.0
 10
175.07500000000005
 20
265.0
 10
175.07500000000005
 20
255.00000000000003
 10
204.92500000000007
 20
255.00000000000003
 10
204.92500000000007
 20
265.0
 10
235.07500000000005
 20
265.0
 10
235.07500000000005
 20
255.00000000000003
 10
264.92500000000007
 20
255.0
 10
264.92500000000007
 20
265.0
 10
295.07500000000005
 20
265.0
 10
295.07500000000005
 20
255.0
 10
305.00000000000006
 20
255.0
 10
305.00000000000006
 20
209.0
 10
315.00000000000006
 20
209.0
 10
315.00000000000006
 20
255.0
 10
319.92500000000007
 20
255.0
 10
319.92500000000007
 20
25.0
 10
315.00000000000006
 20
25.0
 10
315.00000000000006
 20
71.0
 10
305.00000000000006
 20
71.0
 10
305.00000000000006
 20
25.0
 10
295.07500000000005
 20
25.0
 10
295.07500000000005
 20
15.0
 10
264.92500000000007
 20
15.0
 10
264.92500000000007
 20
25.0
 10
235.07500000000005
 20
25.0
 10
235.07500000000005
 20
15.0
 10
204.92500000000007
 20
15.0
 10
204.92500000000007
 20
25.0
 10
175.07500000000005
 20
25.0
 10
175.07500000000005
 20
15.0
 10
144.92500000000007
 20
15.0
 10
144.92500000000007
 20
25.0
 10
115.07500000000005
 20
25.0
 10
115.07500000000005
 20
15.0
 10
84.92500000000004
 20
15.0
 10
84.92500000000004
 20
25.0
 10
55.075000000000045
 20
25.0
 10
55.075000000000045
 20
15.0
 10
25.000000000000043
 20
15.0
 10
15.0
 20
15.0
 10
15.0
 20
25.0
 10
15.000000000000007
 20
57.93214285714288
 10
25.000000000000007
 20
57.93214285714288
 10
25.000000000000014
 20
90.63928571428573
  0
LWPOLYLINE
  5
32
330
17
100
AcDbEntity
  8
CUT
 62
7
100
AcDbPolyline
 90
5
 70
1
 10
305.00000000000006
 20
163.0
 10
305.00000000000006
 20
117.0
 10
315.00000000000006
 20
117.0
 10
315.00000000000006
 20
163.0
 10
305.00000000000006
 20
163.0
  0
LWPOLYLINE
  5
33
330
17
100
AcDbEntity
  8
CUT
 62
7
100
AcDbPolyline
 90
65
 70
1
 10
259.4799483626779
 20
149.05923419495963
 10
258.14907954126863
 20
158.0312230123407
 10
255.94521053004945
 20
166.8295612952437
 10
252.8895657923557
 20
175.3695162363435
 10
249.01157285739674
 20
183.56884340114286
 10
244.3485789170628
 20
191.34857878683673
 10
238.94549115205098
 20
198.63379928882497
 10
232.8543442511667
 20
205.35434425116665
 10
226.133799288825
 20
211.44549115205095
 10
218.84857878683675
 20
216.84857891706275
 10
211.06884340114289
 20
221.51157285739671
 10
202.8695162363435
 20
225.38956579235565
 10
194.3295612952437
 20
228.4452105300494
 10
185.53122301234072
 20
230.64907954126858
 10
176.55923419495963
 20
231.97994836267782
 10
167.50000000000006
 20
232.425
 10
158.44076580504043
 20
231.97994836267782
 10
149.46877698765934
 20
230.64907954126858
 10
140.67043870475635
 20
228.4452105300494
 10
132.13048376365657
 20
225.38956579235565
 10
123.93115659885719
 20
221.5115728573967
 10
116.15142121316332
 20
216.84857891706275
 10
108.86620071117507
 20
211.44549115205092
 10
102.14565574883338
 20
205.35434425116665
 10
96.05450884794907
 20
198.63379928882492
 10
90.65142108293728
 20
191.3485787868367
 10
85.98842714260333
 20
183.56884340114283
 10
82.11043420764436
 20
175.36951623634343
 10
79.05478946995063
 20
166.82956129524365
 10
76.85092045873148
 20
158.03122301234066
 10
75.52005163732224
 20
149.05923419495963
 10
75.07500000000005
 20
140.0
 10
75.52005163732225
 20
130.94076580504034
 10
76.85092045873148
 20
121.96877698765931
 10
79.05478946995065
 20
113.17043870475632
 10
82.11043420764437
 20
104.63048376365657
 10
85.98842714260334
 20
96.43115659885716
 10
90.65142108293729
 20
88.65142121316327
 10
96.05450884794908
 20
81.36620071117507
 10
102.14565574883339
 20
74.64565574883335
 10
108.86620071117513
 20
68.55450884794902
 10
116.15142121316333
 20
63.15142108293725
 10
123.93115659885721
 20
58.488427142603285
 10
132.13048376365663
 20
54.61043420764433
 10
140.67043870475638
 20
51.55478946995059
 10
149.4687769876594
 20
49.35092045873144
 10
158.44076580504043
 20
48.0200516373222
 10
167.50000000000006
 20
47.575
 10
176.55923419495969
 20
48.02005163732221
 10
185.53122301234072
 20
49.35092045873144
 10
194.3295612952437
 20
51.55478946995059
 10
202.8695162363435
 20
54.61043420764433
 10
211.06884340114289
 20
58.4884271426033
 10
218.8485787868368
 20
63.15142108293726
 10
226.133799288825
 20
68.55450884794905
 10
232.8543442511667
 20
74.64565574883335
 10
238.94549115205103
 20
81.36620071117507
 10
244.3485789170628
 20
88.65142121316327
 10
249.01157285739674
 20
96.43115659885717
 10
252.8895657923557
 20
104.63048376365657
 10
255.94521053004945
 20
113.17043870475632
 10
258.14907954126863
 20
121.96877698765934
 10
259.4799483626779
 20
130.94076580504037
 10
259.92500000000007
 20
140.0
 10
259.4799483626779
 20
149.05923419495963
  0
LWPOLYLINE
  5
34
330
17
100
AcDbEntity
  8
ENGRAVE
 62
1
100
AcDbPolyline
 90
4
 70
0
 10
150.46250000000003
 20
146.0
 10
147.46250000000003
 20
146.0
 10
147.46250000000003
 20
143.0
 10
149.56250000000003
 20
143.0
  0
LWPOLYLINE
  5
35
330
17
100
AcDbEntity
  8
ENGRAVE
 62
1
100
AcDbPolyline
 90
6
 70
0
 10
151.96250000000003
 20
140.0
 10
151.96250000000003
 20
146.0
 10
154.96250000000003
 20
146.0
 10
154.96250000000003
 20
143.0
 10
151.96250000000003
 20
143.0
 10
154.96250000000003
 20
140.0
  0
LWPOLYLINE
  5
36
330
17
100
AcDbEntity
  8
ENGRAVE
 62
1
100
AcDbPolyline
 90
5
 70
0
 10
156.46250000000003
 20
140.0
 10
159.46250000000003
 20
140.0
 10
159.46250000000003
 20
146.0
 10
156.46250000000003
 20
146.0
 10
156.46250000000003
 20
140.0
  0
LWPOLYLINE
  5
37
330
17
100
AcDbEntity
  8
ENGRAVE
 62
1
100
AcDbPolyline
 90
4
 70
0
 10
160.96250000000003
 20
140.0
 10
160.96250000000003
 20
146.0
 10
163.96250000000003
 20
140.0
 10
163.96250000000003
 20
146.0
  0
LWPOLYLINE
  5
38
330
17
100
AcDbEntity
  8
ENGRAVE
 62
1
100
AcDbPolyline
 90
4
 70
0
 10
165.46250000000003
 20
146.0
 10
168.46250000000003
 20
146.0
 10
166.96250000000003
 20
146.0
 10
166.96250000000003
 20
140.0
  0
LWPOLYLINE
  5
39
330
17
100
AcDbEntity
  8
CUT
 62
7
100
AcDbPolyline
 90
77
 70
1
 10
344.9250000000001
 20
15.0
 10
334.92500000000007
 20
15.0
 10
334.92500000000007
 20
25.0
 10
334.92500000000007
 20
57.93214285714288
 10
344.92500000000007
 20
57.93214285714288
 10
344.92500000000007
 20
90.63928571428573
 10
334.92500000000007
 20
90.63928571428573
 10
334.92500000000007
 20
123.64642857142857
 10
344.92500000000007
 20
123.64642857142857
 10
344.92500000000007
 20
156.35357142857146
 10
334.92500000000007
 20
156.35357142857146
 10
334.9250000000001
 20
189.3607142857143
 10
344.9250000000001
 20
189.3607142857143
 10
344.9250000000001
 20
222.06785714285715
 10
334.9250000000001
 20
222.06785714285715
 10
334.9250000000001
 20
255.0
 10
334.9250000000001
 20
265.0
 10
344.9250000000001
 20
265.0
 10
375.0000000000001
 20
265.0
 10
375.0000000000001
 20
255.00000000000003
 10
404.85000000000014
 20
255.00000000000003
 10
404.85000000000014
 20
265.0
 10
435.0000000000001
 20
265.0
 10
435.0000000000001
 20
255.00000000000003
 10
464.85000000000014
 20
255.00000000000003
 10
464.85000000000014
 20
265.0
 10
495.0000000000001
 20
265.0
 10
495.0000000000001
 20
255.00000000000003
 10
524.8500000000001
 20
255.00000000000003
 10
524.8500000000001
 20
265.0
 10
555.0000000000001
 20
265.0
 10
555.0000000000001
 20
255.00000000000003
 10
584.8500000000001
 20
255.0
 10
584.8500000000001
 20
265.0
 10
615.0000000000001
 20
265.0
 10
615.0000000000001
 20
255.0
 10
644.8500000000001
 20
255.0
 10
644.8500000000001
 20
265.0
 10
674.9250000000002
 20
265.0
 10
684.9250000000002
 20
265.0
 10
684.9250000000002
 20
255.0
 10
684.9250000000002
 20
222.06785714285712
 10
674.9250000000002
 20
222.06785714285712
 10
674.9250000000002
 20
189.36071428571427
 10
684.9250000000002
 20
189.36071428571427
 10
684.9250000000002
 20
156.35357142857143
 10
674.9250000000002
 20
156.35357142857143
 10
674.9250000000002
 20
123.64642857142856
 10
684.9250000000002
 20
123.64642857142856
 10
684.9250000000002
 20
90.6392857142857
 10
674.9250000000002
 20
90.6392857142857
 10
674.9250000000002
 20
57.93214285714286
 10
684.9250000000002
 20
57.93214285714286
 10
684.9250000000002
 20
25.0
 10
684.9250000000002
 20
15.0
 10
674.9250000000002
 20
15.0
 10
644.8500000000001
 20
15.0
 10
644.8500000000001
 20
25.0
 10
615.0000000000001
 20
25.0
 10
615.0000000000001
 20
15.0
 10
584.8500000000001
 20
15.0
 10
584.8500000000001
 20
25.0
 10
555.0000000000001
 20
25.0
 10
555.0000000000001
 20
15.0
 10
524.8500000000001
 20
15.0
 10
524.8500000000001
 20
25.0
 10
495.0000000000001
 20
25.0
 10
495.0000000000001
 20
15.0
 10
464.85000000000014
 20
15.0
 10
464.85000000000014
 20
25.0
 10
435.0000000000001
 20
25.0
 10
435.0000000000001
 20
15.0
 10
404.85000000000014
 20
15.0
 10
404.85000000000014
 20
25.0
 10
375.0000000000001
 20
25.0
 10
375.0000000000001
 20
15.0
 10
344.9250000000001
 20
15.0
  0
LWPOLYLINE
  5
3A
330
17
100
AcDbEntity
  8
ENGRAVE
 62
1
100
AcDbPolyline
 90
8
 70
0
 10
489.92500000000007
 20
140.0
 10
489.92500000000007
 20
146.0
 10
492.0250000000001
 20
146.0
 10
492.92500000000007
 20
144.5
 10
492.0250000000001
 20
143.0
 10
492.92500000000007
 20
141.5
 10
492.0250000000001
 20
140.0
 10
489.92500000000007
 20
140.0
  0
LWPOLYLINE
  5
3B
330
17
100
AcDbEntity
  8
ENGRAVE
 62
1
100
AcDbPolyline
 90
5
 70
0
 10
494.42500000000007
 20
140.0
 10
495.92500000000007
 20
146.0
 10
497.42500000000007
 20
140.0
 10
496.67500000000007
 20
143.0
 10
495.17500000000007
 20
143.0
  0
LWPOLYLINE
  5
3C
330
17
100
AcDbEntity
  8
ENGRAVE
 62
1
100
AcDbPolyline
 90
4
 70
0
 10
501.92500000000007
 20
146.0
 10
498.92500000000007
 20
146.0
 10
498.92500000000007
 20
140.0
 10
501.92500000000007
 20
140.0
  0
LWPOLYLINE
  5
3D
330
17
100
AcDbEntity
  8
ENGRAVE
 62
1
100
AcDbPolyline
 90
6
 70
0
 10
503.42500000000007
 20
140.0
 10
503.42500000000007
 20
146.0
 10
503.42500000000007
 20
143.0
 10
506.42500000000007
 20
146.0
 10
503.42500000000007
 20
143.0
 10
506.42500000000007
 20
140.0
  0
LWPOLYLINE
  5
3E
330
17
100
AcDbEntity
  8
CUT
 62
7
100
AcDbPolyline
 90
82
 70
1
 10
709.9250000000002
 20
56.1861111111111
 10
709.9250000000002
 20
87.14722222222224
 10
699.9250000000002
 20
87.14722222222224
 10
699.9250000000002
 20
118.40833333333333
 10
709.9250000000002
 20
118.40833333333333
 10
709.9250000000002
 20
149.36944444444447
 10
699.9250000000002
 20
149.36944444444447
 10
699.9250000000002
 20
180.63055555555556
 10
709.9250000000002
 20
180.63055555555556
 10
709.9250000000002
 20
211.59166666666667
 10
699.9250000000002
 20
211.59166666666667
 10
699.9250000000002
 20
242.8527777777778
 10
709.9250000000002
 20
242.8527777777778
 10
709.9250000000002
 20
273.81388888888887
 10
699.9250000000002
 20
273.81388888888887
 10
699.9250000000002
 20
305.0
 10
699.9250000000002
 20
305.00000000000006
 10
709.9250000000002
 20
305.00000000000006
 10
739.8500000000003
 20
305.00000000000006
 10
739.8500000000003
 20
315.00000000000006
 10
770.0000000000002
 20
315.00000000000006
 10
770.0000000000002
 20
305.00000000000006
 10
799.8500000000003
 20
305.00000000000006
 10
799.8500000000003
 20
315.00000000000006
 10
830.0000000000002
 20
315.0
 10
830.0000000000002
 20
305.0
 10
859.8500000000003
 20
305.0
 10
859.8500000000003
 20
315.0
 10
890.0000000000002
 20
315.0
 10
890.0000000000002
 20
305.0
 10
919.8500000000003
 20
305.0
 10
919.8500000000003
 20
315.0
 10
950.0000000000002
 20
315.0
 10
950.0000000000002
 20
305.0
 10
979.8500000000003
 20
305.0
 10
979.8500000000003
 20
315.0
 10
1010.0000000000002
 20
315.0
 10
1010.0000000000002
 20
305.0
 10
1039.9250000000002
 20
305.0
 10
1049.9250000000002
 20
305.0
 10
1049.9250000000002
 20
273.81388888888887
 10
1039.9250000000002
 20
273.81388888888887
 10
1039.9250000000002
 20
242.85277777777776
 10
1049.9250000000002
 20
242.85277777777776
 10
1049.9250000000002
 20
211.59166666666667
 10
1039.9250000000002
 20
211.59166666666667
 10
1039.9250000000002
 20
180.63055555555553
 10
1049.9250000000002
 20
180.63055555555553
 10
1049.9250000000002
 20
149.36944444444444
 10
1039.9250000000002
 20
149.36944444444444
 10
1039.9250000000002
 20
118.40833333333333
 10
1049.9250000000002
 20
118.40833333333333
 10
1049.9250000000002
 20
87.14722222222221
 10
1039.9250000000002
 20
87.14722222222221
 10
1039.9250000000002
 20
56.18611111111111
 10
1049.9250000000002
 20
56.18611111111111
 10
1049.9250000000002
 20
25.0
 10
1039.9250000000002
 20
25.0
 10
1010.0000000000002
 20
25.0
 10
1010.0000000000002
 20
15.0
 10
979.8500000000003
 20
15.0
 10
979.8500000000003
 20
25.0
 10
950.0000000000002
 20
25.0
 10
950.0000000000002
 20
15.0
 10
919.8500000000003
 20
15.0
 10
919.8500000000003
 20
25.0
 10
890.0000000000002
 20
25.0
 10
890.0000000000002
 20
15.0
 10
859.8500000000003
 20
15.0
 10
859.8500000000003
 20
25.0
 10
830.0000000000002
 20
25.0
 10
830.0000000000002
 20
15.0
 10
799.8500000000003
 20
15.0
 10
799.8500000000003
 20
25.0
 10
770.0000000000002
 20
25.0
 10
770.0000000000002
 20
15.0
 10
739.8500000000003
 20
15.0
 10
739.8500000000003
 20
25.0
 10
709.9250000000002
 20
25.0
 10
699.9250000000002
 20
25.0
 10
699.9250000000002
 20
56.1861111111111
 10
709.9250000000002
 20
56.1861111111111
  0
LWPOLYLINE
  5
3F
330
17
100
AcDbEntity
  8
CUT
 62
7
100
AcDbPolyline
 90
5
 70
1
 10
994.9250000000002
 20
60.925
 10
994.9250000000002
 20
35.075
 10
1005.0750000000003
 20
35.075
 10
1005.0750000000003
 20
60.925
 10
994.9250000000002
 20
60.925
  0
LWPOLYLINE
  5
40
330
17
100
AcDbEntity
  8
CUT
 62
7
100
AcDbPolyline
 90
5
 70
1
 10
1005.0750000000003
 20
112.925
 10
994.9250000000002
 20
112.925
 10
994.9250000000002
 20
87.075
 10
1005.0750000000003
 20
87.075
 10
1005.0750000000003
 20
112.925
  0
LWPOLYLINE
  5
41
330
17
100
AcDbEntity
  8
CUT
 62
7
100
AcDbPolyline
 90
5
 70
1
 10
1005.0750000000003
 20
139.075
 10
1005.0750000000003
 20
164.925
 10
994.9250000000002
 20
164.925
 10
994.9250000000002
 20
139.075
 10
1005.0750000000003
 20
139.075
  0
LWPOLYLINE
  5
42
330
17
100
AcDbEntity
  8
ENGRAVE
 62
1
100
AcDbPolyline
 90
4
 70
0
 10
854.9250000000002
 20
171.00000000000003
 10
857.9250000000002
 20
171.00000000000003
 10
856.4250000000002
 20
171.00000000000003
 10
856.4250000000002
 20
165.00000000000003
  0
LWPOLYLINE
  5
43
330
17
100
AcDbEntity
  8
ENGRAVE
 62
1
100
AcDbPolyline
 90
5
 70
0
 10
859.4250000000002
 20
165.00000000000003
 10
862.4250000000002
 20
165.00000000000003
 10
862.4250000000002
 20
171.00000000000003
 10
859.4250000000002
 20
171.00000000000003
 10
859.4250000000002
 20
165.00000000000003
  0
LWPOLYLINE
  5
44
330
17
100
AcDbEntity
  8
ENGRAVE
 62
1
100
AcDbPolyline
 90
5
 70
0
 10
863.9250000000002
 20
165.00000000000003
 10
863.9250000000002
 20
171.00000000000003
 10
866.9250000000002
 20
171.00000000000003
 10
866.9250000000002
 20
168.00000000000003
 10
863.9250000000002
 20
168.00000000000003
  0
LWPOLYLINE
  5
45
330
17
100
AcDbEntity
  8
CUT
 62
7
100
AcDbPolyline
 90
82
 70
1
 10
1074.9250000000002
 20
56.1861111111111
 10
1074.9250000000002
 20
87.14722222222224
 10
1064.9250000000002
 20
87.14722222222224
 10
1064.9250000000002
 20
118.40833333333333
 10
1074.9250000000002
 20
118.40833333333333
 10
1074.9250000000002
 20
149.36944444444447
 10
1064.9250000000002
 20
149.36944444444447
 10
1064.9250000000002
 20
180.63055555555556
 10
1074.9250000000002
 20
180.63055555555556
 10
1074.9250000000002
 20
211.59166666666667
 10
1064.9250000000002
 20
211.59166666666667
 10
1064.9250000000002
 20
242.8527777777778
 10
1074.9250000000002
 20
242.8527777777778
 10
1074.9250000000002
 20
273.81388888888887
 10
1064.9250000000002
 20
273.81388888888887
 10
1064.9250000000002
 20
305.0
 10
1064.9250000000002
 20
305.00000000000006
 10
1074.9250000000002
 20
305.00000000000006
 10
1104.8500000000001
 20
305.00000000000006
 10
1104.8500000000001
 20
315.00000000000006
 10
1135.0000000000002
 20
315.00000000000006
 10
1135.0000000000002
 20
305.00000000000006
 10
1164.8500000000004
 20
305.00000000000006
 10
1164.8500000000004
 20
315.00000000000006
 10
1195.0000000000002
 20
315.0
 10
1195.0000000000002
 20
305.0
 10
1224.8500000000004
 20
305.0
 10
1224.8500000000004
 20
315.0
 10
1255.0000000000002
 20
315.0
 10
1255.0000000000002
 20
305.0
 10
1284.8500000000004
 20
305.0
 10
1284.8500000000004
 20
315.0
 10
1315.0000000000002
 20
315.0
 10
1315.0000000000002
 20
305.0
 10
1344.8500000000004
 20
305.0
 10
1344.8500000000004
 20
315.0
 10
1375.0000000000002
 20
315.0
 10
1375.0000000000002
 20
305.0
 10
1404.9250000000002
 20
305.0
 10
1414.9250000000002
 20
305.0
 10
1414.9250000000002
 20
273.81388888888887
 10
1404.9250000000002
 20
273.81388888888887
 10
1404.9250000000002
 20
242.85277777777776
 10
1414.9250000000002
 20
242.85277777777776
 10
1414.9250000000002
 20
211.59166666666667
 10
1404.9250000000002
 20
211.59166666666667
 10
1404.9250000000002
 20
180.63055555555553
 10
1414.9250000000002
 20
180.63055555555553
 10
1414.9250000000002
 20
149.36944444444444
 10
1404.9250000000002
 20
149.36944444444444
 10
1404.9250000000002
 20
118.40833333333333
 10
1414.9250000000002
 20
118.40833333333333
 10
1414.9250000000002
 20
87.14722222222221
 10
1404.9250000000002
 20
87.14722222222221
 10
1404.9250000000002
 20
56.18611111111111
 10
1414.9250000000002
 20
56.18611111111111
 10
1414.9250000000002
 20
25.0
 10
1404.9250000000002
 20
25.0
 10
1375.0000000000002
 20
25.0
 10
1375.0000000000002
 20
15.0
 10
1344.8500000000004
 20
15.0
 10
1344.8500000000004
 20
25.0
 10
1315.0000000000002
 20
25.0
 10
1315.0000000000002
 20
15.0
 10
1284.8500000000004
 20
15.0
 10
1284.8500000000004
 20
25.0
 10
1255.0000000000002
 20
25.0
 10
1255.0000000000002
 20
15.0
 10
1224.8500000000004
 20
15.0
 10
1224.8500000000004
 20
25.0
 10
1195.0000000000002
 20
25.0
 10
1195.0000000000002
 20
15.0
 10
1164.8500000000001
 20
15.0
 10
1164.8500000000001
 20
25.0
 10
1135.0000000000002
 20
25.0
 10
1135.0000000000002
 20
15.0
 10
1104.8500000000001
 20
15.0
 10
1104.8500000000001
 20
25.0
 10
1074.9250000000002
 20
25.0
 10
1064.9250000000002
 20
25.0
 10
1064.9250000000002
 20
56.1861111111111
 10
1074.9250000000002
 20
56.1861111111111
  0
LWPOLYLINE
  5
46
330
17
100
AcDbEntity
  8
CUT
 62
7
100
AcDbPolyline
 90
5
 70
1
 10
1359.9250000000002
 20
60.925
 10
1359.9250000000002
 20
35.075
 10
1370.0750000000003
 20
35.075
 10
1370.0750000000003
 20
60.925
 10
1359.9250000000002
 20
60.925
  0
LWPOLYLINE
  5
47
330
17
100
AcDbEntity
  8
CUT
 62
7
100
AcDbPolyline
 90
5
 70
1
 10
1370.0750000000003
 20
112.925
 10
1359.9250000000002
 20
112.925
 10
1359.9250000000002
 20
87.075
 10
1370.0750000000003
 20
87.075
 10
1370.0750000000003
 20
112.925
  0
LWPOLYLINE
  5
48
330
17
100
AcDbEntity
  8
CUT
 62
7
100
AcDbPolyline
 90
5
 70
1
 10
1370.0750000000003
 20
139.075
 10
1370.0750000000003
 20
164.925
 10
1359.9250000000002
 20
164.925
 10
1359.9250000000002
 20
139.075
 10
1370.0750000000003
 20
139.075
  0
LWPOLYLINE
  5
49
330
17
100
AcDbEntity
  8
ENGRAVE
 62
1
100
AcDbPolyline
 90
8
 70
0
 10
1219.9250000000002
 20
165.00000000000003
 10
1219.9250000000002
 20
171.00000000000003
 10
1222.025
 20
171.00000000000003
 10
1222.9250000000002
 20
169.50000000000003
 10
1222.025
 20
168.00000000000003
 10
1222.9250000000002
 20
166.50000000000003
 10
1222.025
 20
165.00000000000003
 10
1219.9250000000002
 20
165.00000000000003
  0
LWPOLYLINE
  5
4A
330
17
100
AcDbEntity
  8
ENGRAVE
 62
1
100
AcDbPolyline
 90
5
 70
0
 10
1224.4250000000002
 20
165.00000000000003
 10
1227.4250000000002
 20
165.00000000000003
 10
1227.4250000000002
 20
171.00000000000003
 10
1224.4250000000002
 20
171.00000000000003
 10
1224.4250000000002
 20
165.00000000000003
  0
LWPOLYLINE
  5
4B
330
17
100
AcDbEntity
  8
ENGRAVE
 62
1
100
AcDbPolyline
 90
4
 70
0
 10
1228.9250000000002
 20
171.00000000000003
 10
1231.9250000000002
 20
171.00000000000003
 10
1230.4250000000002
 20
171.00000000000003
 10
1230.4250000000002
 20
165.00000000000003
  0
LWPOLYLINE
  5
4C
330
17
100
AcDbEntity
  8
ENGRAVE
 62
1
100
AcDbPolyline
 90
4
 70
0
 10
1233.4250000000002
 20
171.00000000000003
 10
1236.4250000000002
 20
171.00000000000003
 10
1234.9250000000002
 20
171.00000000000003
 10
1234.9250000000002
 20
165.00000000000003
  0
LWPOLYLINE
  5
4D
330
17
100
AcDbEntity
  8
ENGRAVE
 62
1
100
AcDbPolyline
 90
5
 70
0
 10
1237.9250000000002
 20
165.00000000000003
 10
1240.9250000000002
 20
165.00000000000003
 10
1240.9250000000002
 20
171.00000000000003
 10
1237.9250000000002
 20
171.00000000000003
 10
1237.9250000000002
 20
165.00000000000003
  0
LWPOLYLINE
  5
4E
330
17
100
AcDbEntity
  8
ENGRAVE
 62
1
100
AcDbPolyline
 90
5
 70
0
 10
1242.4250000000002
 20
165.00000000000003
 10
1242.4250000000002
 20
171.00000000000003
 10
1243.9250000000002
 20
168.00000000000003
 10
1245.4250000000002
 20
171.00000000000003
 10
1245.4250000000002
 20
165.00000000000003
  0
LWPOLYLINE
  5
4F
330
17
100
AcDbEntity
  8
CUT
 62
7
100
AcDbPolyline
 90
63
 70
1
 10
25.000000000000036
 20
340.00000000000006
 10
24.999999999999993
 20
340.00000000000006
 10
25.0
 20
372.78214285714296
 10
15.0
 20
372.78214285714296
 10
15.000000000000005
 20
405.78928571428577
 10
25.000000000000007
 20
405.78928571428577
 10
25.00000000000001
 20
438.4964285714286
 10
15.00000000000001
 20
438.4964285714286
 10
15.000000000000018
 20
471.5035714285715
 10
25.000000000000018
 20
471.5035714285715
 10
25.00000000000002
 20
504.21071428571435
 10
15.000000000000023
 20
504.21071428571435
 10
15.00000000000003
 20
537.2178571428572
 10
25.00000000000003
 20
537.2178571428572
 10
25.000000000000036
 20
570.0
 10
25.000000000000036
 20
570.0000000000001
 10
56.03611111111116
 20
570.0000000000001
 10
56.03611111111116
 20
580.0000000000001
 10
87.29722222222225
 20
580.0000000000001
 10
87.29722222222225
 20
570.0000000000001
 10
118.25833333333338
 20
570.0000000000001
 10
118.25833333333338
 20
580.0000000000001
 10
149.51944444444447
 20
580.0000000000001
 10
149.51944444444447
 20
570.0000000000001
 10
180.48055555555558
 20
570.0000000000001
 10
180.48055555555558
 20
580.0000000000001
 10
211.7416666666667
 20
580.0
 10
211.7416666666667
 20
570.0
 10
242.7027777777778
 20
570.0
 10
242.7027777777778
 20
580.0
 10
273.96388888888896
 20
580.0
 10
273.96388888888896
 20
570.0
 10
305.00000000000006
 20
570.0
 10
305.00000000000006
 20
537.2178571428572
 10
315.00000000000006
 20
537.2178571428572
 10
315.00000000000006
 20
504.21071428571435
 10
305.00000000000006
 20
504.21071428571435
 10
305.00000000000006
 20
471.5035714285715
 10
315.00000000000006
 20
471.5035714285715
 10
315.00000000000006
 20
438.4964285714286
 10
305.00000000000006
 20
438.4964285714286
 10
305.00000000000006
 20
405.78928571428577
 10
315.00000000000006
 20
405.78928571428577
 10
315.00000000000006
 20
372.7821428571429
 10
305.00000000000006
 20
372.7821428571429
 10
305.00000000000006
 20
340.00000000000006
 10
273.9638888888889
 20
340.00000000000006
 10
273.9638888888889
 20
330.00000000000006
 10
242.7027777777778
 20
330.00000000000006
 10
242.7027777777778
 20
340.00000000000006
 10
211.74166666666667
 20
340.00000000000006
 10
211.74166666666667
 20
330.00000000000006
 10
180.48055555555558
 20
330.00000000000006
 10
180.48055555555558
 20
340.00000000000006
 10
149.51944444444447
 20
340.00000000000006
 10
149.51944444444447
 20
330.00000000000006
 10
118.25833333333335
 20
330.00000000000006
 10
118.25833333333335
 20
340.00000000000006
 10
87.29722222222225
 20
340.00000000000006
 10
87.29722222222225
 20
330.00000000000006
 10
56.03611111111115
 20
330.00000000000006
 10
56.03611111111115
 20
340.00000000000006
 10
25.000000000000036
 20
340.00000000000006
  0
LWPOLYLINE
  5
50
330
17
100
AcDbEntity
  8
ENGRAVE
 62
1
100
AcDbPolyline
 90
3
 70
0
 10
145.00000000000003
 20
461.00000000000006
 10
145.00000000000003
 20
455.00000000000006
 10
148.00000000000003
 20
455.00000000000006
  0
LWPOLYLINE
  5
51
330
17
100
AcDbEntity
  8
ENGRAVE
 62
1
100
AcDbPolyline
 90
7
 70
0
 10
152.50000000000003
 20
461.00000000000006
 10
149.50000000000003
 20
461.00000000000006
 10
149.50000000000003
 20
458.00000000000006
 10
151.60000000000002
 20
458.00000000000006
 10
149.50000000000003
 20
458.00000000000006
 10
149.50000000000003
 20
455.00000000000006
 10
152.50000000000003
 20
455.00000000000006
  0
LWPOLYLINE
  5
52
330
17
100
AcDbEntity
  8
ENGRAVE
 62
1
100
AcDbPolyline
 90
4
 70
0
 10
157.00000000000003
 20
461.00000000000006
 10
154.00000000000003
 20
461.00000000000006
 10
154.00000000000003
 20
458.00000000000006
 10
156.10000000000002
 20
458.00000000000006
  0
LWPOLYLINE
  5
53
330
17
100
AcDbEntity
  8
ENGRAVE
 62
1
100
AcDbPolyline
 90
4
 70
0
 10
158.50000000000003
 20
461.00000000000006
 10
161.50000000000003
 20
461.00000000000006
 10
160.00000000000003
 20
461.00000000000006
 10
160.00000000000003
 20
455.00000000000006
  0
LWPOLYLINE
  5
54
330
17
100
AcDbEntity
  8
CUT
 62
7
100
AcDbPolyline
 90
63
 70
1
 10
340.0000000000001
 20
340.00000000000006
 10
340.00000000000006
 20
340.00000000000006
 10
340.00000000000006
 20
372.78214285714296
 10
330.00000000000006
 20
372.78214285714296
 10
330.00000000000006
 20
405.78928571428577
 10
340.00000000000006
 20
405.78928571428577
 10
340.00000000000006
 20
438.4964285714286
 10
330.00000000000006
 20
438.4964285714286
 10
330.00000000000006
 20
471.5035714285715
 10
340.00000000000006
 20
471.5035714285715
 10
340.00000000000006
 20
504.21071428571435
 10
330.00000000000006
 20
504.21071428571435
 10
330.0000000000001
 20
537.2178571428572
 10
340.0000000000001
 20
537.2178571428572
 10
340.0000000000001
 20
570.0
 10
340.0000000000001
 20
570.0000000000001
 10
371.0361111111112
 20
570.0000000000001
 10
371.0361111111112
 20
580.0000000000001
 10
402.29722222222233
 20
580.0000000000001
 10
402.29722222222233
 20
570.0000000000001
 10
433.25833333333344
 20
570.0000000000001
 10
433.25833333333344
 20
580.0000000000001
 10
464.5194444444445
 20
580.0000000000001
 10
464.5194444444445
 20
570.0000000000001
 10
495.4805555555556
 20
570.0000000000001
 10
495.4805555555556
 20
580.0000000000001
 10
526.7416666666668
 20
580.0
 10
526.7416666666668
 20
570.0
 10
557.7027777777779
 20
570.0
 10
557.7027777777779
 20
580.0
 10
588.963888888889
 20
580.0
 10
588.963888888889
 20
570.0
 10
620.0000000000001
 20
570.0
 10
620.0000000000001
 20
537.2178571428572
 10
630.0000000000001
 20
537.2178571428572
 10
630.0000000000001
 20
504.21071428571435
 10
620.0000000000001
 20
504.21071428571435
 10
620.0000000000001
 20
471.5035714285715
 10
630.0000000000001
 20
471.5035714285715
 10
630.0000000000001
 20
438.4964285714286
 10
620.0000000000001
 20
438.4964285714286
 10
620.0000000000001
 20
405.78928571428577
 10
630.0000000000001
 20
405.78928571428577
 10
630.0000000000001
 20
372.7821428571429
 10
620.0000000000001
 20
372.7821428571429
 10
620.0000000000001
 20
340.00000000000006
 10
588.963888888889
 20
340.00000000000006
 10
588.963888888889
 20
330.00000000000006
 10
557.7027777777779
 20
330.00000000000006
 10
557.7027777777779
 20
340.00000000000006
 10
526.7416666666668
 20
340.00000000000006
 10
526.7416666666668
 20
330.00000000000006
 10
495.4805555555556
 20
330.00000000000006
 10
495.4805555555556
 20
340.00000000000006
 10
464.5194444444445
 20
340.00000000000006
 10
464.5194444444445
 20
330.00000000000006
 10
433.25833333333344
 20
330.00000000000006
 10
433.25833333333344
 20
340.00000000000006
 10
402.29722222222233
 20
340.00000000000006
 10
402.29722222222233
 20
330.00000000000006
 10
371.0361111111112
 20
330.00000000000006
 10
371.0361111111112
 20
340.00000000000006
 10
340.0000000000001
 20
340.00000000000006
  0
LWPOLYLINE
  5
55
330
17
100
AcDbEntity
  8
ENGRAVE
 62
1
100
AcDbPolyline
 90
6
 70
0
 10
460.0000000000001
 20
455.00000000000006
 10
460.0000000000001
 20
461.00000000000006
 10
463.0000000000001
 20
461.00000000000006
 10
463.0000000000001
 20
458.00000000000006
 10
460.0000000000001
 20
458.00000000000006
 10
463.0000000000001
 20
455.00000000000006
  0
LWPOLYLINE
  5
56
330
17
100
AcDbEntity
  8
ENGRAVE
 62
1
100
AcDbPolyline
 90
2
 70
0
 10
466.0000000000001
 20
455.00000000000006
 10
466.0000000000001
 20
461.00000000000006
  0
LWPOLYLINE
  5
57
330
17
100
AcDbEntity
  8
ENGRAVE
 62
1
100
AcDbPolyline
 90
6
 70
0
 10
472.0000000000001
 20
461.00000000000006
 10
469.0000000000001
 20
461.00000000000006
 10
469.0000000000001
 20
455.00000000000006
 10
472.0000000000001
 20
455.00000000000006
 10
472.0000000000001
 20
458.00000000000006
 10
470.5000000000001
 20
458.00000000000006
  0
LWPOLYLINE
  5
58
330
17
100
AcDbEntity
  8
ENGRAVE
 62
1
100
AcDbPolyline
 90
6
 70
0
 10
473.5000000000001
 20
455.00000000000006
 10
473.5000000000001
 20
461.00000000000006
 10
473.5000000000001
 20
458.00000000000006
 10
476.5000000000001
 20
458.00000000000006
 10
476.5000000000001
 20
461.00000000000006
 10
476.5000000000001
 20
455.00000000000006
  0
LWPOLYLINE
  5
59
330
17
100
AcDbEntity
  8
ENGRAVE
 62
1
100
AcDbPolyline
 90
4
 70
0
 10
478.0000000000001
 20
461.00000000000006
 10
481.0000000000001
 20
461.00000000000006
 10
479.5000000000001
 20
461.00000000000006
 10
479.5000000000001
 20
455.00000000000006
  0
LWPOLYLINE
  5
5A
330
17
100
AcDbEntity
  8
CUT
 62
7
100
AcDbPolyline
 90
41
 70
1
 10
655.0000000000001
 20
340.00000000000006
 10
655.0000000000001
 20
339.92500000000007
 10
645.0000000000001
 20
339.92500000000007
 10
645.0000000000001
 20
386.07500000000005
 10
655.0000000000001
 20
386.07500000000005
 10
655.0000000000001
 20
431.92500000000007
 10
645.0000000000001
 20
431.92500000000007
 10
645.0000000000001
 20
478.07500000000005
 10
655.0000000000001
 20
478.07500000000005
 10
655.0000000000001
 20
523.9250000000001
 10
645.0000000000001
 20
523.9250000000001
 10
645.0000000000001
 20
570.075
 10
655.0000000000001
 20
570.075
 10
655.0000000000001
 20
570.0
 10
664.9250000000001
 20
570.0
 10
664.9250000000001
 20
580.0
 10
691.0750000000002
 20
580.0
 10
691.0750000000002
 20
570.0
 10
716.9250000000001
 20
570.0
 10
716.9250000000001
 20
580.0
 10
743.0750000000002
 20
580.0
 10
743.0750000000002
 20
570.0
 10
768.9250000000001
 20
570.0
 10
768.9250000000001
 20
580.0
 10
795.075
 20
580.0
 10
795.075
 20
570.0
 10
805.0000000000001
 20
570.0
 10
805.0000000000001
 20
340.00000000000006
 10
795.075
 20
340.00000000000006
 10
795.075
 20
330.00000000000006
 10
768.9250000000001
 20
330.00000000000006
 10
768.9250000000001
 20
340.00000000000006
 10
743.0750000000002
 20
340.00000000000006
 10
743.0750000000002
 20
330.00000000000006
 10
716.9250000000001
 20
330.00000000000006
 10
716.9250000000001
 20
340.00000000000006
 10
691.0750000000002
 20
340.00000000000006
 10
691.0750000000002
 20
330.00000000000006
 10
664.9250000000001
 20
330.00000000000006
 10
664.9250000000001
 20
340.00000000000006
 10
655.0000000000001
 20
340.00000000000006
  0
LWPOLYLINE
  5
5B
330
17
100
AcDbEntity
  8
ENGRAVE
 62
1
100
AcDbPolyline
 90
5
 70
0
 10
705.0000000000001
 20
455.00000000000006
 10
705.0000000000001
 20
461.00000000000006
 10
708.0000000000001
 20
461.00000000000006
 10
708.0000000000001
 20
458.00000000000006
 10
705.0000000000001
 20
458.00000000000006
  0
LWPOLYLINE
  5
5C
330
17
100
AcDbEntity
  8
ENGRAVE
 62
1
100
AcDbPolyline
 90
5
 70
0
 10
709.5000000000001
 20
455.00000000000006
 10
712.5000000000001
 20
455.00000000000006
 10
712.5000000000001
 20
461.00000000000006
 10
709.5000000000001
 20
461.00000000000006
 10
709.5000000000001
 20
455.00000000000006
  0
LWPOLYLINE
  5
5D
330
17
100
AcDbEntity
  8
ENGRAVE
 62
1
100
AcDbPolyline
 90
6
 70
0
 10
714.0000000000001
 20
455.00000000000006
 10
714.0000000000001
 20
461.00000000000006
 10
717.0000000000001
 20
461.00000000000006
 10
717.0000000000001
 20
458.00000000000006
 10
714.0000000000001
 20
458.00000000000006
 10
717.0000000000001
 20
455.00000000000006
  0
LWPOLYLINE
  5
5E
330
17
100
AcDbEntity
  8
ENGRAVE
 62
1
100
AcDbPolyline
 90
4
 70
0
 10
718.5000000000001
 20
461.00000000000006
 10
721.5000000000001
 20
461.00000000000006
 10
720.0000000000001
 20
461.00000000000006
 10
720.0000000000001
 20
455.00000000000006
  0
LWPOLYLINE
  5
5F
330
17
100
AcDbEntity
  8
ENGRAVE
 62
1
100
AcDbPolyline
 90
2
 70
0
 10
723.0000000000001
 20
455.00000000000006
 10
726.0000000000001
 20
455.00000000000006
  0
LWPOLYLINE
  5
60
330
17
100
AcDbEntity
  8
ENGRAVE
 62
1
100
AcDbPolyline
 90
5
 70
0
 10
727.5000000000001
 20
461.00000000000006
 10
727.5000000000001
 20
455.00000000000006
 10
729.0000000000001
 20
458.00000000000006
 10
730.5000000000001
 20
455.00000000000006
 10
730.5000000000001
 20
461.00000000000006
  0
LWPOLYLINE
  5
61
330
17
100
AcDbEntity
  8
ENGRAVE
 62
1
100
AcDbPolyline
 90
5
 70
0
 10
732.0000000000001
 20
455.00000000000006
 10
733.5000000000001
 20
461.00000000000006
 10
735.0000000000001
 20
455.00000000000006
 10
734.2500000000001
 20
458.00000000000006
 10
732.7500000000001
 20
458.00000000000006
  0
LWPOLYLINE
  5
62
330
17
100
AcDbEntity
  8
ENGRAVE
 62
1
100
AcDbPolyline
 90
3
 70
0
 10
736.5000000000001
 20
461.00000000000006
 10
736.5000000000001
 20
455.00000000000006
 10
739.5000000000001
 20
455.00000000000006
  0
LWPOLYLINE
  5
63
330
17
100
AcDbEntity
  8
ENGRAVE
 62
1
100
AcDbPolyline
 90
3
 70
0
 10
741.0000000000001
 20
461.00000000000006
 10
741.0000000000001
 20
455.00000000000006
 10
744.0000000000001
 20
455.00000000000006
  0
ENDSEC
  0
SECTION
  2
OBJECTS
  0
DICTIONARY
  5
A
330
0
100
AcDbDictionary
281
1
  3
ACAD_COLOR
350
B
  3
ACAD_GROUP
350
C
  3
ACAD_LAYOUT
350
D
  3
ACAD_MATERIAL
350
E
  3
ACAD_MLEADERSTYLE
350
F
  3
ACAD_MLINESTYLE
350
10
  3
ACAD_PLOTSETTINGS
350
11
  3
ACAD_PLOTSTYLENAME
350
12
  3
ACAD_SCALELIST
350
14
  3
ACAD_TABLESTYLE
350
15
  3
ACAD_VISUALSTYLE
350
16
  3
EZDXF_META
350
2D
  0
DICTIONARY
  5
B
330
A
100
AcDbDictionary
281
1
  0
DICTIONARY
  5
C
330
A
100
AcDbDictionary
281
1
  0
DICTIONARY
  5
D
330
A
100
AcDbDictionary
281
1
  3
Model
350
1A
  3
Layout1
350
1E
  0
DICTIONARY
  5
E
330
A
100
AcDbDictionary
281
1
  3
ByBlock
350
1F
  3
ByLayer
350
20
  3
Global
350
21
  0
DICTIONARY
  5
F
330
A
100
AcDbDictionary
281
1
  3
Standard
350
2C
  0
DICTIONARY
  5
10
330
A
100
AcDbDictionary
281
1
  3
Standard
350
22
  0
DICTIONARY
  5
11
330
A
100
AcDbDictionary
281
1
  0
ACDBDICTIONARYWDFLT
  5
12
330
A
100
AcDbDictionary
281
1
  3
Normal
350
13
100
AcDbDictionaryWithDefault
340
13
  0
ACDBPLACEHOLDER
  5
13
330
12
  0
DICTIONARY
  5
14
330
A
100
AcDbDictionary
281
1
  0
DICTIONARY
  5
15
330
A
100
AcDbDictionary
281
1
  0
DICTIONARY
  5
16
330
A
100
AcDbDictionary
281
1
  0
LAYOUT
  5
1A
330
D
100
AcDbPlotSettings
  1

  4
A3
  6

 40
7.5
 41
20.0
 42
7.5
 43
20.0
 44
420.0
 45
297.0
 46
0.0
 47
0.0
 48
0.0
 49
0.0
140
0.0
141
0.0
142
1.0
143
1.0
 70
1024
 72
1
 73
0
 74
5
  7

 75
16
 76
0
 77
2
 78
300
147
1.0
148
0.0
149
0.0
100
AcDbLayout
  1
Model
 70
1
 71
0
 10
0.0
 20
0.0
 11
420.0
 21
297.0
 12
0.0
 22
0.0
 32
0.0
 14
1e+20
 24
1e+20
 34
1e+20
 15
-1e+20
 25
-1e+20
 35
-1e+20
146
0.0
 13
0.0
 23
0.0
 33
0.0
 16
1.0
 26
0.0
 36
0.0
 17
0.0
 27
1.0
 37
0.0
 76
1
330
17
  0
LAYOUT
  5
1E
330
D
100
AcDbPlotSettings
  1

  4
A3
  6

 40
7.5
 41
20.0
 42
7.5
 43
20.0
 44
420.0
 45
297.0
 46
0.0
 47
0.0
 48
0.0
 49
0.0
140
0.0
141
0.0
142
1.0
143
1.0
 70
0
 72
1
 73
0
 74
5
  7

 75
16
 76
0
 77
2
 78
300
147
1.0
148
0.0
149
0.0
100
AcDbLayout
  1
Layout1
 70
1
 71
1
 10
0.0
 20
0.0
 11
420.0
 21
297.0
 12
0.0
 22
0.0
 32
0.0
 14
1e+20
 24
1e+20
 34
1e+20
 15
-1e+20
 25
-1e+20
 35
-1e+20
146
0.0
 13
0.0
 23
0.0
 33
0.0
 16
1.0
 26
0.0
 36
0.0
 17
0.0
 27
1.0
 37
0.0
 76
1
330
1B
  0
MATERIAL
  5
1F
102
{ACAD_REACTORS
330
E
102
}
330
E
100
AcDbMaterial
  1
ByBlock
  2

 70
0
 40
1.0
 71
1
 41
1.0
 91
-1023410177
 42
1.0
 72
1
  3

 73
1
 74
1
 75
1
 44
0.5
 73
0
 45
1.0
 46
1.0
 77
1
  4

 78
1
 79
1
170
1
 48
1.0
171
1
  6

172
1
173
1
174
1
140
1.0
141
1.0
175
1
  7

176
1
177
1
178
1
143
1.0
179
1
  8

270
1
271
1
272
1
145
1.0
146
1.0
273
1
  9

274
1
275
1
276
1
 42
1.0
 72
1
  3

 73
1
 74
1
 75
1
 94
63
  0
MATERIAL
  5
20
102
{ACAD_REACTORS
330
E
102
}
330
E
100
AcDbMaterial
  1
ByLayer
  2

 70
0
 40
1.0
 71
1
 41
1.0
 91
-1023410177
 42
1.0
 72
1
  3

 73
1
 74
1
 75
1
 44
0.5
 73
0
 45
1.0
 46
1.0
 77
1
  4

 78
1
 79
1
170
1
 48
1.0
171
1
  6

172
1
173
1
174
1
140
1.0
141
1.0
175
1
  7

176
1
177
1
178
1
143
1.0
179
1
  8

270
1
271
1
272
1
145
1.0
146
1.0
273
1
  9

274
1
275
1
276
1
 42
1.0
 72
1
  3

 73
1
 74
1
 75
1
 94
63
  0
MATERIAL
  5
21
102
{ACAD_REACTORS
330
E
102
}
330
E
100
AcDbMaterial
  1
Global
  2

 70
0
 40
1.0
 71
1
 41
1.0
 91
-1023410177
 42
1.0
 72
1
  3

 73
1
 74
1
 75
1
 44
0.5
 73
0
 45
1.0
 46
1.0
 77
1
  4

 78
1
 79
1
170
1
 48
1.0
171
1
  6

172
1
173
1
174
1
140
1.0
141
1.0
175
1
  7

176
1
177
1
178
1
143
1.0
179
1
  8

270
1
271
1
272
1
145
1.0
146
1.0
273
1
  9

274
1
275
1
276
1
 42
1.0
 72
1
  3

 73
1
 74
1
 75
1
 94
63
  0
MLINESTYLE
  5
22
102
{ACAD_REACTORS
330
10
102
}
330
10
100
AcDbMlineStyle
  2
Standard
 70
0
  3

 62
256
 51
90.0
 52
90.0
 71
2
 49
0.5
 62
256
  6
BYLAYER
 49
-0.5
 62
256
  6
BYLAYER
  0
MLEADERSTYLE
  5
2C
102
{ACAD_REACTORS
330
F
102
}
330
F
100
AcDbMLeaderStyle
179
2
170
2
171
1
172
0
 90
2
 40
0.0
 41
0.0
173
1
 91
-1056964608
 92
-2
290
1
 42
2.0
291
1
 43
8.0
  3
Standard
 44
4.0
300

342
29
174
1
175
1
176
0
178
1
 93
-1056964608
 45
4.0
292
0
297
0
 46
4.0
 94
-1056964608
 47
1.0
 49
1.0
140
1.0
294
1
141
0.0
177
0
142
1.0
295
0
296
0
143
3.75
271
0
272
9
273
9
  0
DICTIONARY
  5
2D
330
A
100
AcDbDictionary
280
1
281
1
  3
CREATED_BY_EZDXF
350
2E
  3
WRITTEN_BY_EZDXF
350
66
  0
DICTIONARYVAR
  5
2E
330
2D
100
DictionaryVariables
280
0
  1
1.4.3 @ 2026-03-11T21:42:49.682203+00:00
  0
DICTIONARYVAR
  5
66
330
2D
100
DictionaryVariables
280
0
  1
1.4.3 @ 2026-03-11T21:42:49.769745+00:00
  0
ENDSEC
  0
EOF
